<svg width="456" height="260" viewBox="0 0 456 260" fill="none" xmlns="http://www.w3.org/2000/svg" xmlns:xlink="http://www.w3.org/1999/xlink">
<path d="M106.75,170.625C106.75,184.708 95.333,196.125 81.25,196.125L81.25,210.125C103.065,210.125 120.75,192.44 120.75,170.625L106.75,170.625ZM81.25,196.125C67.167,196.125 55.75,184.708 55.75,170.625L41.75,170.625C41.75,192.44 59.435,210.125 81.25,210.125L81.25,196.125ZM55.75,170.625C55.75,156.542 67.167,145.125 81.25,145.125L81.25,131.125C59.435,131.125 41.75,148.81 41.75,170.625L55.75,170.625ZM81.25,145.125C95.333,145.125 106.75,156.542 106.75,170.625L120.75,170.625C120.75,148.81 103.065,131.125 81.25,131.125L81.25,145.125Z" fill="#000000"/>
<path d="M26.9,223.3C24.58,226.393 25.207,230.78 28.3,233.1C31.393,235.42 35.78,234.793 38.1,231.7L26.9,223.3ZM81.25,203.125L81.25,196.125L81.25,203.125ZM124.4,231.7C126.72,234.793 131.107,235.42 134.2,233.1C137.293,230.78 137.92,226.393 135.6,223.3L124.4,231.7ZM38.1,231.7C43.124,225.001 49.639,219.564 57.128,215.819L50.867,203.297C41.434,208.014 33.228,214.862 26.9,223.3L38.1,231.7ZM57.128,215.819C64.618,212.075 72.876,210.125 81.25,210.125L81.25,196.125C70.703,196.125 60.301,198.581 50.867,203.297L57.128,215.819ZM81.25,210.125C89.624,210.125 97.882,212.075 105.372,215.819L111.633,203.297C102.199,198.581 91.797,196.125 81.25,196.125L81.25,210.125ZM105.372,215.819C112.861,219.564 119.376,225.001 124.4,231.7L135.6,223.3C129.272,214.862 121.066,208.014 111.633,203.297L105.372,215.819Z" fill="#000000"/>
<path d="M106.75,65C106.75,79.083 95.333,90.5 81.25,90.5L81.25,104.5C103.065,104.5 120.75,86.815 120.75,65L106.75,65ZM81.25,90.5C67.167,90.5 55.75,79.083 55.75,65L41.75,65C41.75,86.815 59.435,104.5 81.25,104.5L81.25,90.5ZM55.75,65C55.75,50.917 67.167,39.5 81.25,39.5L81.25,25.5C59.435,25.5 41.75,43.185 41.75,65L55.75,65ZM81.25,39.5C95.333,39.5 106.75,50.917 106.75,65L120.75,65C120.75,43.185 103.065,25.5 81.25,25.5L81.25,39.5Z" fill="#000000"/>
<path d="M26.9,117.675C24.58,120.768 25.207,125.155 28.3,127.475C31.393,129.795 35.78,129.168 38.1,126.075L26.9,117.675ZM124.4,126.075C126.72,129.168 131.107,129.795 134.2,127.475C137.293,125.155 137.92,120.768 135.6,117.675L124.4,126.075ZM38.1,126.075C43.124,119.376 49.639,113.939 57.128,110.194L50.867,97.672C41.434,102.389 33.228,109.237 26.9,117.675L38.1,126.075ZM57.128,110.194C64.618,106.45 72.876,104.5 81.25,104.5L81.25,90.5C70.703,90.5 60.301,92.956 50.867,97.672L57.128,110.194ZM81.25,104.5C89.624,104.5 97.882,106.45 105.372,110.194L111.633,97.672C102.199,92.956 91.797,90.5 81.25,90.5L81.25,104.5ZM105.372,110.194C112.861,113.939 119.376,119.376 124.4,126.075L135.6,117.675C129.272,109.237 121.066,102.389 111.633,97.672L105.372,110.194Z" fill="#000000"/>
<path d="M204.25,170.625C204.25,184.708 192.833,196.125 178.75,196.125L178.75,210.125C200.565,210.125 218.25,192.44 218.25,170.625L204.25,170.625ZM178.75,196.125C164.667,196.125 153.25,184.708 153.25,170.625L139.25,170.625C139.25,192.44 156.935,210.125 178.75,210.125L178.75,196.125ZM153.25,170.625C153.25,156.542 164.667,145.125 178.75,145.125L178.75,131.125C156.935,131.125 139.25,148.81 139.25,170.625L153.25,170.625ZM178.75,145.125C192.833,145.125 204.25,156.542 204.25,170.625L218.25,170.625C218.25,148.81 200.565,131.125 178.75,131.125L178.75,145.125Z" fill="#000000"/>
<path d="M124.4,223.3C122.08,226.393 122.707,230.78 125.8,233.1C128.893,235.42 133.28,234.793 135.6,231.7L124.4,223.3ZM221.9,231.7C224.22,234.793 228.607,235.42 231.7,233.1C234.793,230.78 235.42,226.393 233.1,223.3L221.9,231.7ZM135.6,231.7C140.624,225.001 147.139,219.564 154.628,215.819L148.367,203.297C138.934,208.014 130.728,214.862 124.4,223.3L135.6,231.7ZM154.628,215.819C162.118,212.075 170.376,210.125 178.75,210.125L178.75,196.125C168.203,196.125 157.801,198.581 148.367,203.297L154.628,215.819ZM178.75,210.125C187.124,210.125 195.382,212.075 202.872,215.819L209.133,203.297C199.699,198.581 189.297,196.125 178.75,196.125L178.75,210.125ZM202.872,215.819C210.361,219.564 216.876,225.001 221.9,231.7L233.1,223.3C226.772,214.862 218.566,208.014 209.133,203.297L202.872,215.819Z" fill="#000000"/>
<path d="M204.25,65C204.25,79.083 192.833,90.5 178.75,90.5L178.75,104.5C200.565,104.5 218.25,86.815 218.25,65L204.25,65ZM178.75,90.5C164.667,90.5 153.25,79.083 153.25,65L139.25,65C139.25,86.815 156.935,104.5 178.75,104.5L178.75,90.5ZM153.25,65C153.25,50.917 164.667,39.5 178.75,39.5L178.75,25.5C156.935,25.5 139.25,43.185 139.25,65L153.25,65ZM178.75,39.5C192.833,39.5 204.25,50.917 204.25,65L218.25,65C218.25,43.185 200.565,25.5 178.75,25.5L178.75,39.5Z" fill="#000000"/>
<path d="M124.4,117.675C122.08,120.768 122.707,125.155 125.8,127.475C128.893,129.795 133.28,129.168 135.6,126.075L124.4,117.675ZM221.9,126.075C224.22,129.168 228.607,129.795 231.7,127.475C234.793,125.155 235.42,120.768 233.1,117.675L221.9,126.075ZM135.6,126.075C140.624,119.376 147.139,113.939 154.628,110.194L148.367,97.672C138.934,102.389 130.728,109.237 124.4,117.675L135.6,126.075ZM154.628,110.194C162.118,106.45 170.376,104.5 178.75,104.5L178.75,90.5C168.203,90.5 157.801,92.956 148.367,97.672L154.628,110.194ZM178.75,104.5C187.124,104.5 195.382,106.45 202.872,110.194L209.133,97.672C199.699,92.956 189.297,90.5 178.75,90.5L178.75,104.5ZM202.872,110.194C210.361,113.939 216.876,119.376 221.9,126.075L233.1,117.675C226.772,109.237 218.566,102.389 209.133,97.672L202.872,110.194Z" fill="#000000"/>
<path d="M302.75,170.625C302.75,184.708 291.333,196.125 277.25,196.125L277.25,210.125C299.065,210.125 316.75,192.44 316.75,170.625L302.75,170.625ZM277.25,196.125C263.167,196.125 251.75,184.708 251.75,170.625L237.75,170.625C237.75,192.44 255.435,210.125 277.25,210.125L277.25,196.125ZM251.75,170.625C251.75,156.542 263.167,145.125 277.25,145.125L277.25,131.125C255.435,131.125 237.75,148.81 237.75,170.625L251.75,170.625ZM277.25,145.125C291.333,145.125 302.75,156.542 302.75,170.625L316.75,170.625C316.75,148.81 299.065,131.125 277.25,131.125L277.25,145.125Z" fill="#000000"/>
<path d="M222.9,223.3C220.58,226.393 221.207,230.78 224.3,233.1C227.393,235.42 231.78,234.793 234.1,231.7L222.9,223.3ZM277.25,203.125L277.25,196.125L277.25,203.125ZM320.4,231.7C322.72,234.793 327.107,235.42 330.2,233.1C333.293,230.78 333.92,226.393 331.6,223.3L320.4,231.7ZM234.1,231.7C239.124,225.001 245.639,219.564 253.128,215.819L246.867,203.297C237.434,208.014 229.228,214.862 222.9,223.3L234.1,231.7ZM253.128,215.819C260.618,212.075 268.876,210.125 277.25,210.125L277.25,196.125C266.703,196.125 256.301,198.581 246.867,203.297L253.128,215.819ZM277.25,210.125C285.624,210.125 293.882,212.075 301.372,215.819L307.633,203.297C298.199,198.581 287.797,196.125 277.25,196.125L277.25,210.125ZM301.372,215.819C308.861,219.564 315.376,225.001 320.4,231.7L331.6,223.3C325.272,214.862 317.066,208.014 307.633,203.297L301.372,215.819Z" fill="#000000"/>
<path d="M302.75,65C302.75,79.083 291.333,90.5 277.25,90.5L277.25,104.5C299.065,104.5 316.75,86.815 316.75,65L302.75,65ZM277.25,90.5C263.167,90.5 251.75,79.083 251.75,65L237.75,65C237.75,86.815 255.435,104.5 277.25,104.5L277.25,90.5ZM251.75,65C251.75,50.917 263.167,39.5 277.25,39.5L277.25,25.5C255.435,25.5 237.75,43.185 237.75,65L251.75,65ZM277.25,39.5C291.333,39.5 302.75,50.917 302.75,65L316.75,65C316.75,43.185 299.065,25.5 277.25,25.5L277.25,39.5Z" fill="#000000"/>
<path d="M222.9,117.675C220.58,120.768 221.207,125.155 224.3,127.475C227.393,129.795 231.78,129.168 234.1,126.075L222.9,117.675ZM320.4,126.075C322.72,129.168 327.107,129.795 330.2,127.475C333.293,125.155 333.92,120.768 331.6,117.675L320.4,126.075ZM234.1,126.075C239.124,119.376 245.639,113.939 253.128,110.194L246.867,97.672C237.434,102.389 229.228,109.237 222.9,117.675L234.1,126.075ZM253.128,110.194C260.618,106.45 268.876,104.5 277.25,104.5L277.25,90.5C266.703,90.5 256.301,92.956 246.867,97.672L253.128,110.194ZM277.25,104.5C285.624,104.5 293.882,106.45 301.372,110.194L307.633,97.672C298.199,92.956 287.797,90.5 277.25,90.5L277.25,104.5ZM301.372,110.194C308.861,113.939 315.376,119.376 320.4,126.075L331.6,117.675C325.272,109.237 317.066,102.389 307.633,97.672L301.372,110.194Z" fill="#000000"/>
<path d="M400.25,170.625C400.25,184.708 388.833,196.125 374.75,196.125L374.75,210.125C396.565,210.125 414.25,192.44 414.25,170.625L400.25,170.625ZM374.75,196.125C360.667,196.125 349.25,184.708 349.25,170.625L335.25,170.625C335.25,192.44 352.935,210.125 374.75,210.125L374.75,196.125ZM349.25,170.625C349.25,156.542 360.667,145.125 374.75,145.125L374.75,131.125C352.935,131.125 335.25,148.81 335.25,170.625L349.25,170.625ZM374.75,145.125C388.833,145.125 400.25,156.542 400.25,170.625L414.25,170.625C414.25,148.81 396.565,131.125 374.75,131.125L374.75,145.125Z" fill="#000000"/>
<path d="M320.4,223.3C318.08,226.393 318.707,230.78 321.8,233.1C324.893,235.42 329.28,234.793 331.6,231.7L320.4,223.3ZM417.9,231.7C420.22,234.793 424.607,235.42 427.7,233.1C430.793,230.78 431.42,226.393 429.1,223.3L417.9,231.7ZM331.6,231.7C336.624,225.001 343.139,219.564 350.628,215.819L344.367,203.297C334.934,208.014 326.728,214.862 320.4,223.3L331.6,231.7ZM350.628,215.819C358.118,212.075 366.376,210.125 374.75,210.125L374.75,196.125C364.203,196.125 353.801,198.581 344.367,203.297L350.628,215.819ZM374.75,210.125C383.124,210.125 391.382,212.075 398.872,215.819L405.133,203.297C395.699,198.581 385.297,196.125 374.75,196.125L374.75,210.125ZM398.872,215.819C406.361,219.564 412.876,225.001 417.9,231.7L429.1,223.3C422.772,214.862 414.566,208.014 405.133,203.297L398.872,215.819Z" fill="#000000"/>
<path d="M400.25,65C400.25,79.083 388.833,90.5 374.75,90.5L374.75,104.5C396.565,104.5 414.25,86.815 414.25,65L400.25,65ZM374.75,90.5C360.667,90.5 349.25,79.083 349.25,65L335.25,65C335.25,86.815 352.935,104.5 374.75,104.5L374.75,90.5ZM349.25,65C349.25,50.917 360.667,39.5 374.75,39.5L374.75,25.5C352.935,25.5 335.25,43.185 335.25,65L349.25,65ZM374.75,39.5C388.833,39.5 400.25,50.917 400.25,65L414.25,65C414.25,43.185 396.565,25.5 374.75,25.5L374.75,39.5Z" fill="#000000"/>
<path d="M320.4,117.675C318.08,120.768 318.707,125.155 321.8,127.475C324.893,129.795 329.28,129.168 331.6,126.075L320.4,117.675ZM417.9,126.075C420.22,129.168 424.607,129.795 427.7,127.475C430.793,125.155 431.42,120.768 429.1,117.675L417.9,126.075ZM331.6,126.075C336.624,119.376 343.139,113.939 350.628,110.194L344.367,97.672C334.934,102.389 326.728,109.237 320.4,117.675L331.6,126.075ZM350.628,110.194C358.118,106.45 366.376,104.5 374.75,104.5L374.75,90.5C364.203,90.5 353.801,92.956 344.367,97.672L350.628,110.194ZM374.75,104.5C383.124,104.5 391.382,106.45 398.872,110.194L405.133,97.672C395.699,92.956 385.297,90.5 374.75,90.5L374.75,104.5ZM398.872,110.194C406.361,113.939 412.876,119.376 417.9,126.075L429.1,117.675C422.772,109.237 414.566,102.389 405.133,97.672L398.872,110.194Z" fill="#000000"/>
</svg>
