<svg width="260" height="260" viewBox="0 0 260 260" fill="none" xmlns="http://www.w3.org/2000/svg" xmlns:xlink="http://www.w3.org/1999/xlink">
<path d="M163.625,142.188C163.625,160.758 148.571,175.813 130,175.813L130,189.813C156.303,189.813 177.625,168.49 177.625,142.188L163.625,142.188ZM130,175.813C111.429,175.813 96.375,160.758 96.375,142.188L82.375,142.188C82.375,168.49 103.697,189.813 130,189.813L130,175.813ZM96.375,142.188C96.375,123.617 111.429,108.563 130,108.563L130,94.563C103.697,94.563 82.375,115.885 82.375,142.188L96.375,142.188ZM130,108.563C148.571,108.563 163.625,123.617 163.625,142.188L177.625,142.188C177.625,115.885 156.303,94.563 130,94.563L130,108.563Z" fill="#000000"/>
<path d="M199.051,110.813C195.185,110.819 192.056,113.958 192.063,117.824C192.069,121.69 195.208,124.819 199.074,124.813L199.051,110.813ZM242.206,146.378C244.52,149.475 248.907,150.109 252.003,147.795C255.1,145.48 255.734,141.094 253.419,137.997L242.206,146.378ZM199.074,124.813C207.447,124.799 215.706,126.741 223.195,130.485L229.456,117.963C220.016,113.244 209.605,110.795 199.051,110.813L199.074,124.813ZM223.195,130.485C230.683,134.23 237.193,139.672 242.206,146.378L253.419,137.997C247.101,129.543 238.895,122.683 229.456,117.963L223.195,130.485Z" fill="#000000"/>
<path d="M6.58,137.997C4.266,141.094 4.9,145.48 7.997,147.795C11.094,150.109 15.48,149.475 17.795,146.378L6.58,137.997ZM60.926,124.813C64.792,124.819 67.931,121.69 67.938,117.824C67.944,113.958 64.815,110.819 60.949,110.813L60.926,124.813ZM17.795,146.378C22.807,139.672 29.317,134.23 36.805,130.485L30.544,117.963C21.105,122.683 12.899,129.543 6.58,137.997L17.795,146.378ZM36.805,130.485C44.294,126.741 52.553,124.799 60.926,124.813L60.949,110.813C50.395,110.795 39.984,113.244 30.544,117.963L36.805,130.485Z" fill="#000000"/>
<path d="M65.21,216.303C63.514,219.777 64.955,223.969 68.429,225.665C71.903,227.361 76.094,225.92 77.79,222.446L65.21,216.303ZM182.21,222.446C183.906,225.92 188.097,227.361 191.571,225.665C195.045,223.969 196.486,219.777 194.79,216.303L182.21,222.446ZM77.79,222.446C82.565,212.667 89.991,204.425 99.222,198.66L91.806,186.786C80.351,193.94 71.136,204.168 65.21,216.303L77.79,222.446ZM99.222,198.66C108.453,192.895 119.117,189.838 130,189.838L130,175.838C116.495,175.838 103.261,179.632 91.806,186.786L99.222,198.66ZM130,189.838C140.883,189.838 151.547,192.895 160.778,198.66L168.194,186.786C156.739,179.632 143.505,175.838 130,175.838L130,189.838ZM160.778,198.66C170.009,204.425 177.435,212.667 182.21,222.446L194.79,216.303C188.864,204.168 179.649,193.94 168.194,186.786L160.778,198.66Z" fill="#000000"/>
<path d="M60.944,124.813C64.81,124.809 67.941,121.671 67.937,117.805C67.933,113.939 64.796,110.809 60.93,110.813L60.944,124.813ZM85.952,80.531C86.677,84.329 90.343,86.82 94.14,86.095C97.938,85.37 100.429,81.704 99.704,77.906L85.952,80.531ZM60.93,110.813C56.09,110.817 51.349,109.445 47.26,106.855L39.769,118.682C46.103,122.694 53.447,124.82 60.944,124.813L60.93,110.813ZM47.26,106.855C43.171,104.265 39.904,100.566 37.84,96.188L25.177,102.159C28.374,108.94 33.436,114.671 39.769,118.682L47.26,106.855ZM37.84,96.188C35.776,91.811 35,86.936 35.603,82.134L21.712,80.389C20.778,87.827 21.979,95.378 25.177,102.159L37.84,96.188ZM35.603,82.134C36.207,77.331 38.164,72.8 41.247,69.069L30.455,60.152C25.679,65.931 22.647,72.95 21.712,80.389L35.603,82.134ZM41.247,69.069C44.33,65.338 48.411,62.562 53.013,61.064L48.681,47.751C41.552,50.071 35.23,54.372 30.455,60.152L41.247,69.069ZM53.013,61.064C57.616,59.566 62.549,59.409 67.237,60.611L70.714,47.05C63.452,45.188 55.81,45.431 48.681,47.751L53.013,61.064ZM67.237,60.611C71.926,61.813 76.175,64.325 79.489,67.852L89.692,58.266C84.559,52.802 77.976,48.912 70.714,47.05L67.237,60.611ZM79.489,67.852C82.803,71.38 85.044,75.777 85.952,80.531L99.704,77.906C98.298,70.542 94.826,63.73 89.692,58.266L79.489,67.852Z" fill="#000000"/>
<path d="M160.296,77.906C159.571,81.704 162.062,85.37 165.859,86.095C169.657,86.82 173.323,84.329 174.048,80.531L160.296,77.906ZM199.07,110.813C195.204,110.809 192.066,113.939 192.062,117.805C192.058,121.671 195.189,124.809 199.055,124.813L199.07,110.813ZM174.048,80.531C174.955,75.777 177.197,71.38 180.511,67.852L170.307,58.266C165.174,63.73 161.702,70.542 160.296,77.906L174.048,80.531ZM180.511,67.852C183.825,64.325 188.074,61.813 192.762,60.611L189.285,47.05C182.023,48.912 175.441,52.802 170.307,58.266L180.511,67.852ZM192.762,60.611C197.451,59.409 202.384,59.566 206.986,61.064L211.319,47.751C204.19,45.431 196.548,45.188 189.285,47.05L192.762,60.611ZM206.986,61.064C211.589,62.562 215.67,65.338 218.753,69.069L229.545,60.152C224.769,54.372 218.448,50.071 211.319,47.751L206.986,61.064ZM218.753,69.069C221.836,72.8 223.793,77.331 224.396,82.134L238.287,80.389C237.353,72.95 234.32,65.931 229.545,60.152L218.753,69.069ZM224.396,82.134C225,86.936 224.224,91.811 222.16,96.188L234.823,102.159C238.02,95.378 239.222,87.827 238.287,80.389L224.396,82.134ZM222.16,96.188C220.096,100.566 216.828,104.265 212.74,106.855L220.23,118.682C226.564,114.671 231.625,108.94 234.823,102.159L222.16,96.188ZM212.74,106.855C208.651,109.445 203.909,110.817 199.07,110.813L199.055,124.813C206.552,124.82 213.897,122.694 220.23,118.682L212.74,106.855Z" fill="#000000"/>
</svg>
