<svg width="96" height="108" viewBox="0 0 96 108" fill="none" xmlns="http://www.w3.org/2000/svg" xmlns:xlink="http://www.w3.org/1999/xlink">
<path d="M42.667,0.667L42.667,34.875C35.282,33.504 27.654,34.443 20.821,37.564C13.989,40.684 8.285,45.835 4.486,52.314C0.686,58.794 -1.024,66.286 -0.412,73.773C0.2,81.259 3.105,88.374 7.907,94.15C12.709,99.926 19.174,104.081 26.422,106.05C33.671,108.019 41.35,107.706 48.414,105.154C55.478,102.602 61.584,97.934 65.9,91.787C70.216,85.639 72.532,78.311 72.533,70.8L72.533,50.875C78.267,53.313 84.436,54.558 90.667,54.533L96,54.533L96,24.667L90.667,24.667C80.517,24.667 72.533,16.469 72.533,6L72.533,0.667L42.667,0.667ZM53.333,11.333L62.336,11.333C64.437,23.173 73.429,32.645 85.333,34.853L85.333,43.483C79.797,42.672 74.8,40.592 70.171,37.493L61.867,31.936L61.867,70.8C61.866,75.973 60.315,81.027 57.413,85.309C54.511,89.591 50.392,92.904 45.588,94.822C40.784,96.739 35.515,97.172 30.463,96.065C25.41,94.957 20.805,92.361 17.243,88.61C13.681,84.859 11.326,80.126 10.481,75.023C9.636,69.92 10.34,64.681 12.503,59.982C14.666,55.283 18.188,51.341 22.614,48.664C27.04,45.987 32.168,44.699 37.333,44.965L37.333,53.52C33.858,53.252 30.384,54.038 27.362,55.774C24.34,57.511 21.913,60.119 20.395,63.256C18.878,66.394 18.342,69.916 18.857,73.363C19.372,76.81 20.914,80.021 23.281,82.579C25.649,85.136 28.733,86.92 32.13,87.698C35.527,88.476 39.08,88.212 42.325,86.94C45.57,85.668 48.356,83.448 50.32,80.569C52.283,77.69 53.334,74.285 53.333,70.8L53.333,11.333ZM29.333,70.8C29.333,69.032 30.036,67.336 31.286,66.086C32.536,64.836 34.232,64.133 36,64.133C37.768,64.133 39.464,64.836 40.714,66.086C41.964,67.336 42.667,69.032 42.667,70.8C42.667,72.568 41.964,74.264 40.714,75.514C39.464,76.764 37.768,77.467 36,77.467C34.232,77.467 32.536,76.764 31.286,75.514C30.036,74.264 29.333,72.568 29.333,70.8Z" fill="#FFFFFF"/>
</svg>
