<svg width="108" height="106" viewBox="0 0 108 106" fill="none" xmlns="http://www.w3.org/2000/svg" xmlns:xlink="http://www.w3.org/1999/xlink">
<path d="M91.6,14.576C86.711,9.637 80.887,5.721 74.468,3.056C68.049,0.392 61.164,-0.968 54.214,-0.944C25.094,-0.944 1.36,22.789 1.36,51.909C1.36,61.243 3.814,70.309 8.4,78.309L0.934,105.723L28.934,98.363C36.667,102.576 45.36,104.816 54.214,104.816C83.334,104.816 107.067,81.083 107.067,51.963C107.067,37.829 101.574,24.549 91.6,14.576ZM54.214,95.856C46.32,95.856 38.587,93.723 31.814,89.723L30.214,88.763L13.574,93.136L18,76.923L16.934,75.269C12.548,68.266 10.22,60.172 10.214,51.909C10.214,27.696 29.947,7.963 54.16,7.963C65.894,7.963 76.934,12.549 85.2,20.869C89.294,24.944 92.537,29.79 94.744,35.128C96.95,40.465 98.075,46.187 98.054,51.963C98.16,76.176 78.427,95.856 54.214,95.856ZM78.32,63.003C76.987,62.363 70.48,59.163 69.307,58.683C68.08,58.256 67.227,58.043 66.32,59.323C65.414,60.656 62.907,63.643 62.16,64.496C61.414,65.403 60.614,65.509 59.28,64.816C57.947,64.176 53.68,62.736 48.667,58.256C44.72,54.736 42.107,50.416 41.307,49.083C40.56,47.749 41.2,47.056 41.894,46.363C42.48,45.776 43.227,44.816 43.867,44.069C44.507,43.323 44.774,42.736 45.2,41.883C45.627,40.976 45.414,40.229 45.094,39.589C44.774,38.949 42.107,32.443 41.04,29.776C39.974,27.216 38.854,27.536 38.054,27.483L35.494,27.483C34.587,27.483 33.2,27.803 31.974,29.136C30.8,30.469 27.387,33.669 27.387,40.176C27.387,46.683 32.134,52.976 32.774,53.829C33.414,54.736 42.107,68.069 55.334,73.776C58.48,75.163 60.934,75.963 62.854,76.549C66,77.563 68.88,77.403 71.174,77.083C73.734,76.709 79.014,73.883 80.08,70.789C81.2,67.696 81.2,65.083 80.827,64.496C80.454,63.909 79.654,63.643 78.32,63.003Z" fill="#FFFFFF"/>
</svg>
