<svg width="108" height="108" viewBox="0 0 108 108" fill="none" xmlns="http://www.w3.org/2000/svg" xmlns:xlink="http://www.w3.org/1999/xlink">
<path d="M31.6,0.667L76.4,0.667C93.467,0.667 107.333,14.533 107.333,31.6L107.333,76.4C107.333,84.604 104.074,92.472 98.273,98.273C92.472,104.074 84.604,107.333 76.4,107.333L31.6,107.333C14.533,107.333 0.667,93.467 0.667,76.4L0.667,31.6C0.667,23.396 3.926,15.528 9.727,9.727C15.528,3.926 23.396,0.667 31.6,0.667ZM30.533,11.333C25.441,11.333 20.557,13.356 16.957,16.957C13.356,20.557 11.333,25.441 11.333,30.533L11.333,77.467C11.333,88.08 19.92,96.667 30.533,96.667L77.467,96.667C82.559,96.667 87.442,94.644 91.043,91.043C94.644,87.442 96.667,82.559 96.667,77.467L96.667,30.533C96.667,19.92 88.08,11.333 77.467,11.333L30.533,11.333ZM82,19.333C83.768,19.333 85.464,20.036 86.714,21.286C87.964,22.536 88.667,24.232 88.667,26C88.667,27.768 87.964,29.464 86.714,30.714C85.464,31.964 83.768,32.667 82,32.667C80.232,32.667 78.536,31.964 77.286,30.714C76.036,29.464 75.333,27.768 75.333,26C75.333,24.232 76.036,22.536 77.286,21.286C78.536,20.036 80.232,19.333 82,19.333ZM54,27.333C61.072,27.333 67.855,30.143 72.856,35.144C77.857,40.145 80.667,46.927 80.667,54C80.667,61.072 77.857,67.855 72.856,72.856C67.855,77.857 61.072,80.667 54,80.667C46.927,80.667 40.145,77.857 35.144,72.856C30.143,67.855 27.333,61.072 27.333,54C27.333,46.927 30.143,40.145 35.144,35.144C40.145,30.143 46.927,27.333 54,27.333ZM54,38C49.756,38 45.687,39.686 42.686,42.686C39.686,45.687 38,49.756 38,54C38,58.243 39.686,62.313 42.686,65.314C45.687,68.314 49.756,70 54,70C58.243,70 62.313,68.314 65.314,65.314C68.314,62.313 70,58.243 70,54C70,49.756 68.314,45.687 65.314,42.686C62.313,39.686 58.243,38 54,38Z" fill="#FFFFFF"/>
</svg>
