<svg width="260" height="260" viewBox="0 0 260 260" fill="none" xmlns="http://www.w3.org/2000/svg" xmlns:xlink="http://www.w3.org/1999/xlink">
<path d="M106.75,170.625C106.75,184.708 95.333,196.125 81.25,196.125L81.25,210.125C103.065,210.125 120.75,192.44 120.75,170.625L106.75,170.625ZM81.25,196.125C67.167,196.125 55.75,184.708 55.75,170.625L41.75,170.625C41.75,192.44 59.435,210.125 81.25,210.125L81.25,196.125ZM55.75,170.625C55.75,156.542 67.167,145.125 81.25,145.125L81.25,131.125C59.435,131.125 41.75,148.81 41.75,170.625L55.75,170.625ZM81.25,145.125C95.333,145.125 106.75,156.542 106.75,170.625L120.75,170.625C120.75,148.81 103.065,131.125 81.25,131.125L81.25,145.125Z" fill="#E2AC1F"/>
<path d="M26.9,223.3C24.58,226.393 25.207,230.78 28.3,233.1C31.393,235.42 35.78,234.793 38.1,231.7L26.9,223.3ZM81.25,203.125L81.25,196.125L81.25,203.125ZM124.4,231.7C126.72,234.793 131.107,235.42 134.2,233.1C137.293,230.78 137.92,226.393 135.6,223.3L124.4,231.7ZM38.1,231.7C43.124,225.001 49.639,219.564 57.128,215.819L50.867,203.297C41.434,208.014 33.228,214.862 26.9,223.3L38.1,231.7ZM57.128,215.819C64.618,212.075 72.876,210.125 81.25,210.125L81.25,196.125C70.703,196.125 60.301,198.581 50.867,203.297L57.128,215.819ZM81.25,210.125C89.624,210.125 97.882,212.075 105.372,215.819L111.633,203.297C102.199,198.581 91.797,196.125 81.25,196.125L81.25,210.125ZM105.372,215.819C112.861,219.564 119.376,225.001 124.4,231.7L135.6,223.3C129.272,214.862 121.066,208.014 111.633,203.297L105.372,215.819Z" fill="#E2AC1F"/>
<path d="M106.75,65C106.75,79.083 95.333,90.5 81.25,90.5L81.25,104.5C103.065,104.5 120.75,86.815 120.75,65L106.75,65ZM81.25,90.5C67.167,90.5 55.75,79.083 55.75,65L41.75,65C41.75,86.815 59.435,104.5 81.25,104.5L81.25,90.5ZM55.75,65C55.75,50.917 67.167,39.5 81.25,39.5L81.25,25.5C59.435,25.5 41.75,43.185 41.75,65L55.75,65ZM81.25,39.5C95.333,39.5 106.75,50.917 106.75,65L120.75,65C120.75,43.185 103.065,25.5 81.25,25.5L81.25,39.5Z" fill="#E2AC1F"/>
<path d="M26.9,117.675C24.58,120.768 25.207,125.155 28.3,127.475C31.393,129.795 35.78,129.168 38.1,126.075L26.9,117.675ZM124.4,126.075C126.72,129.168 131.107,129.795 134.2,127.475C137.293,125.155 137.92,120.768 135.6,117.675L124.4,126.075ZM38.1,126.075C43.124,119.376 49.639,113.939 57.128,110.194L50.867,97.672C41.434,102.389 33.228,109.237 26.9,117.675L38.1,126.075ZM57.128,110.194C64.618,106.45 72.876,104.5 81.25,104.5L81.25,90.5C70.703,90.5 60.301,92.956 50.867,97.672L57.128,110.194ZM81.25,104.5C89.624,104.5 97.882,106.45 105.372,110.194L111.633,97.672C102.199,92.956 91.797,90.5 81.25,90.5L81.25,104.5ZM105.372,110.194C112.861,113.939 119.376,119.376 124.4,126.075L135.6,117.675C129.272,109.237 121.066,102.389 111.633,97.672L105.372,110.194Z" fill="#E2AC1F"/>
<path d="M204.25,170.625C204.25,184.708 192.833,196.125 178.75,196.125L178.75,210.125C200.565,210.125 218.25,192.44 218.25,170.625L204.25,170.625ZM178.75,196.125C164.667,196.125 153.25,184.708 153.25,170.625L139.25,170.625C139.25,192.44 156.935,210.125 178.75,210.125L178.75,196.125ZM153.25,170.625C153.25,156.542 164.667,145.125 178.75,145.125L178.75,131.125C156.935,131.125 139.25,148.81 139.25,170.625L153.25,170.625ZM178.75,145.125C192.833,145.125 204.25,156.542 204.25,170.625L218.25,170.625C218.25,148.81 200.565,131.125 178.75,131.125L178.75,145.125Z" fill="#E2AC1F"/>
<path d="M124.4,223.3C122.08,226.393 122.707,230.78 125.8,233.1C128.893,235.42 133.28,234.793 135.6,231.7L124.4,223.3ZM221.9,231.7C224.22,234.793 228.607,235.42 231.7,233.1C234.793,230.78 235.42,226.393 233.1,223.3L221.9,231.7ZM135.6,231.7C140.624,225.001 147.139,219.564 154.628,215.819L148.367,203.297C138.934,208.014 130.728,214.862 124.4,223.3L135.6,231.7ZM154.628,215.819C162.118,212.075 170.376,210.125 178.75,210.125L178.75,196.125C168.203,196.125 157.801,198.581 148.367,203.297L154.628,215.819ZM178.75,210.125C187.124,210.125 195.382,212.075 202.872,215.819L209.133,203.297C199.699,198.581 189.297,196.125 178.75,196.125L178.75,210.125ZM202.872,215.819C210.361,219.564 216.876,225.001 221.9,231.7L233.1,223.3C226.772,214.862 218.566,208.014 209.133,203.297L202.872,215.819Z" fill="#E2AC1F"/>
<path d="M204.25,65C204.25,79.083 192.833,90.5 178.75,90.5L178.75,104.5C200.565,104.5 218.25,86.815 218.25,65L204.25,65ZM178.75,90.5C164.667,90.5 153.25,79.083 153.25,65L139.25,65C139.25,86.815 156.935,104.5 178.75,104.5L178.75,90.5ZM153.25,65C153.25,50.917 164.667,39.5 178.75,39.5L178.75,25.5C156.935,25.5 139.25,43.185 139.25,65L153.25,65ZM178.75,39.5C192.833,39.5 204.25,50.917 204.25,65L218.25,65C218.25,43.185 200.565,25.5 178.75,25.5L178.75,39.5Z" fill="#E2AC1F"/>
<path d="M124.4,117.675C122.08,120.768 122.707,125.155 125.8,127.475C128.893,129.795 133.28,129.168 135.6,126.075L124.4,117.675ZM221.9,126.075C224.22,129.168 228.607,129.795 231.7,127.475C234.793,125.155 235.42,120.768 233.1,117.675L221.9,126.075ZM135.6,126.075C140.624,119.376 147.139,113.939 154.628,110.194L148.367,97.672C138.934,102.389 130.728,109.237 124.4,117.675L135.6,126.075ZM154.628,110.194C162.118,106.45 170.376,104.5 178.75,104.5L178.75,90.5C168.203,90.5 157.801,92.956 148.367,97.672L154.628,110.194ZM178.75,104.5C187.124,104.5 195.382,106.45 202.872,110.194L209.133,97.672C199.699,92.956 189.297,90.5 178.75,90.5L178.75,104.5ZM202.872,110.194C210.361,113.939 216.876,119.376 221.9,126.075L233.1,117.675C226.772,109.237 218.566,102.389 209.133,97.672L202.872,110.194Z" fill="#E2AC1F"/>
</svg>
