<svg width="108" height="106" viewBox="0 0 108 106" fill="none" xmlns="http://www.w3.org/2000/svg" xmlns:xlink="http://www.w3.org/1999/xlink">
<path d="M31.6,-0.943L76.4,-0.943C93.467,-0.943 107.334,12.923 107.334,29.99L107.334,74.79C107.334,82.994 104.075,90.862 98.274,96.663C92.472,102.464 84.604,105.723 76.4,105.723L31.6,105.723C14.534,105.723 0.667,91.857 0.667,74.79L0.667,29.99C0.667,21.786 3.926,13.918 9.727,8.117C15.528,2.316 23.396,-0.943 31.6,-0.943ZM30.534,9.723C25.442,9.723 20.558,11.746 16.957,15.347C13.357,18.948 11.334,23.831 11.334,28.923L11.334,75.857C11.334,86.47 19.92,95.057 30.534,95.057L77.467,95.057C82.559,95.057 87.443,93.034 91.043,89.433C94.644,85.832 96.667,80.949 96.667,75.857L96.667,28.923C96.667,18.31 88.08,9.723 77.467,9.723L30.534,9.723ZM82,17.723C83.768,17.723 85.464,18.426 86.714,19.676C87.965,20.926 88.667,22.622 88.667,24.39C88.667,26.158 87.965,27.854 86.714,29.104C85.464,30.354 83.768,31.057 82,31.057C80.232,31.057 78.537,30.354 77.286,29.104C76.036,27.854 75.334,26.158 75.334,24.39C75.334,22.622 76.036,20.926 77.286,19.676C78.537,18.426 80.232,17.723 82,17.723ZM54,25.723C61.073,25.723 67.856,28.533 72.857,33.534C77.857,38.535 80.667,45.317 80.667,52.39C80.667,59.462 77.857,66.245 72.857,71.246C67.856,76.247 61.073,79.057 54,79.057C46.928,79.057 40.145,76.247 35.144,71.246C30.143,66.245 27.334,59.462 27.334,52.39C27.334,45.317 30.143,38.535 35.144,33.534C40.145,28.533 46.928,25.723 54,25.723ZM54,36.39C49.757,36.39 45.687,38.076 42.687,41.076C39.686,44.077 38,48.146 38,52.39C38,56.633 39.686,60.703 42.687,63.704C45.687,66.704 49.757,68.39 54,68.39C58.244,68.39 62.313,66.704 65.314,63.704C68.315,60.703 70,56.633 70,52.39C70,48.146 68.315,44.077 65.314,41.076C62.313,38.076 58.244,36.39 54,36.39Z" fill="#FFFFFF"/>
</svg>
