<svg width="98" height="94" viewBox="0 0 98 94" fill="none" xmlns="http://www.w3.org/2000/svg" xmlns:xlink="http://www.w3.org/1999/xlink">
<path d="M43.2,-0.676L43.2,29.373C35.815,28.169 28.187,28.993 21.355,31.735C14.523,34.476 8.818,39 5.019,44.692C1.219,50.383 -0.491,56.965 0.122,63.541C0.734,70.116 3.639,76.367 8.44,81.44C13.242,86.514 19.707,90.164 26.956,91.893C34.204,93.623 41.883,93.348 48.948,91.106C56.012,88.864 62.118,84.764 66.433,79.364C70.749,73.965 73.066,67.527 73.067,60.93L73.067,43.427C78.8,45.569 84.97,46.662 91.2,46.641L96.533,46.641L96.533,20.406L91.2,20.406C81.051,20.406 73.067,13.205 73.067,4.009L73.067,-0.676L43.2,-0.676ZM53.867,8.694L62.869,8.694C64.971,19.094 73.963,27.414 85.867,29.354L85.867,36.934C80.331,36.222 75.333,34.395 70.704,31.673L62.4,26.791L62.4,60.93C62.4,65.473 60.848,69.913 57.946,73.674C55.045,77.435 50.926,80.346 46.122,82.03C41.317,83.715 36.049,84.095 30.996,83.122C25.943,82.149 21.338,79.868 17.777,76.574C14.215,73.279 11.859,69.122 11.014,64.639C10.169,60.156 10.874,55.554 13.037,51.427C15.199,47.299 18.721,43.836 23.148,41.485C27.574,39.134 32.701,38.002 37.867,38.236L37.867,45.751C34.392,45.515 30.917,46.205 27.895,47.731C24.874,49.257 22.446,51.547 20.929,54.303C19.412,57.059 18.875,60.153 19.39,63.181C19.905,66.208 21.447,69.029 23.815,71.276C26.183,73.522 29.266,75.089 32.664,75.773C36.061,76.456 39.614,76.224 42.858,75.107C46.103,73.99 48.889,72.04 50.853,69.51C52.817,66.981 53.867,63.991 53.867,60.93L53.867,8.694ZM29.867,60.93C29.867,59.376 30.569,57.887 31.819,56.789C33.07,55.691 34.765,55.074 36.533,55.074C38.301,55.074 39.997,55.691 41.247,56.789C42.498,57.887 43.2,59.376 43.2,60.93C43.2,62.483 42.498,63.972 41.247,65.07C39.997,66.169 38.301,66.786 36.533,66.786C34.765,66.786 33.07,66.169 31.819,65.07C30.569,63.972 29.867,62.483 29.867,60.93Z" fill="#FFFFFF"/>
</svg>
