<svg width="108" height="108" viewBox="0 0 108 108" fill="none" xmlns="http://www.w3.org/2000/svg" xmlns:xlink="http://www.w3.org/1999/xlink">
<path d="M91.6,16.187C86.71,11.248 80.886,7.331 74.467,4.667C68.049,2.002 61.163,0.642 54.213,0.667C25.093,0.667 1.36,24.4 1.36,53.52C1.36,62.853 3.813,71.92 8.4,79.92L0.933,107.333L28.933,99.973C36.667,104.187 45.36,106.427 54.213,106.427C83.333,106.427 107.067,82.693 107.067,53.573C107.067,39.44 101.573,26.16 91.6,16.187ZM54.213,97.467C46.32,97.467 38.587,95.333 31.813,91.333L30.213,90.373L13.573,94.747L18,78.533L16.933,76.88C12.548,69.877 10.219,61.782 10.213,53.52C10.213,29.307 29.947,9.573 54.16,9.573C65.893,9.573 76.933,14.16 85.2,22.48C89.293,26.554 92.537,31.401 94.744,36.738C96.95,42.076 98.075,47.798 98.053,53.573C98.16,77.787 78.427,97.467 54.213,97.467ZM78.32,64.613C76.987,63.973 70.48,60.773 69.307,60.293C68.08,59.867 67.227,59.653 66.32,60.933C65.413,62.267 62.907,65.253 62.16,66.107C61.413,67.013 60.613,67.12 59.28,66.427C57.947,65.787 53.68,64.347 48.667,59.867C44.72,56.347 42.107,52.027 41.307,50.693C40.56,49.36 41.2,48.667 41.893,47.973C42.48,47.387 43.227,46.427 43.867,45.68C44.507,44.933 44.773,44.347 45.2,43.493C45.627,42.587 45.413,41.84 45.093,41.2C44.773,40.56 42.107,34.053 41.04,31.387C39.973,28.827 38.853,29.147 38.053,29.093L35.493,29.093C34.587,29.093 33.2,29.413 31.973,30.747C30.8,32.08 27.387,35.28 27.387,41.787C27.387,48.293 32.133,54.587 32.773,55.44C33.413,56.347 42.107,69.68 55.333,75.387C58.48,76.773 60.933,77.573 62.853,78.16C66,79.173 68.88,79.013 71.173,78.693C73.733,78.32 79.013,75.493 80.08,72.4C81.2,69.307 81.2,66.693 80.827,66.107C80.453,65.52 79.653,65.253 78.32,64.613Z" fill="#FFFFFF"/>
</svg>
